<?xml version="1.0" standalone="no"?>
<!DOCTYPE svg PUBLIC "-//W3C//DTD SVG 20010904//EN"
 "http://www.w3.org/TR/2001/REC-SVG-20010904/DTD/svg10.dtd">
<svg version="1.0" xmlns="http://www.w3.org/2000/svg"
 width="200.000000pt" height="200.000000pt" viewBox="0 0 200.000000 200.000000"
 preserveAspectRatio="xMidYMid meet">
<metadata>
Created by potrace 1.14, written by Peter Selinger 2001-2017
</metadata>
<g transform="translate(0.000000,200.000000) scale(0.100000,-0.100000)"
fill="#000000" stroke="none">
<path d="M390 1976 c-8 -11 -11 -86 -8 -288 3 -254 4 -276 24 -319 58 -125
210 -203 394 -201 161 1 287 57 359 160 39 56 43 89 46 365 2 222 0 271 -12
283 -31 30 -44 21 -140 -103 l-57 -72 -40 21 c-111 57 -228 56 -332 -3 l-32
-18 -73 94 c-75 96 -102 113 -129 81z m308 -328 c7 -7 12 -22 12 -35 0 -27
-42 -42 -65 -23 -28 23 -11 70 25 70 9 0 21 -5 28 -12z m256 -10 c15 -25 -3
-52 -37 -56 -21 -3 -28 2 -33 22 -12 49 43 76 70 34z m-48 -163 c8 -10 14 -23
14 -27 0 -16 -111 -118 -129 -118 -9 0 -41 24 -70 54 -45 45 -53 58 -47 79 7
31 17 33 130 32 74 -2 91 -5 102 -20z"/>
<path d="M1420 1452 c-89 -11 -149 -53 -186 -127 -54 -112 -22 -260 71 -324
60 -41 151 -54 178 -26 21 21 10 54 -22 61 -118 27 -123 29 -153 88 -26 51
-22 143 8 184 47 63 154 82 228 39 53 -29 76 -93 72 -192 -5 -96 -27 -140
-151 -305 -92 -124 -155 -233 -202 -350 -9 -23 -11 -21 -17 25 -11 70 -68 240
-106 316 -18 35 -59 105 -91 156 -33 51 -59 97 -59 103 0 6 -10 8 -22 5 -102
-24 -248 -27 -318 -6 -43 13 -50 14 -50 2 0 -6 -27 -52 -61 -103 -127 -196
-179 -342 -224 -628 -3 -19 -8 -101 -11 -182 -5 -111 -3 -152 6 -163 10 -12
41 -15 166 -15 l153 0 3 156 c3 137 5 158 21 168 12 8 22 8 35 0 15 -10 17
-31 20 -168 l3 -156 82 0 82 0 1 149 c0 156 7 181 45 181 26 0 41 -34 39 -93
-1 -29 -1 -94 -1 -144 l1 -93 154 0 c112 0 156 3 164 13 6 7 12 58 13 114 5
265 64 429 240 663 130 173 161 237 167 345 7 134 -38 239 -120 281 -34 17
-118 31 -158 26z"/>
</g>
</svg>
