<svg version="1.0" viewBox="0 0 200 200"><path d="M39 2.4c-.8 1.1-1.1 8.6-.8 28.8.3 25.4.4 27.6 2.4 31.9 5.8 12.5 21 20.3 39.4 20.1 16.1-.1 28.7-5.7 35.9-16 3.9-5.6 4.3-8.9 4.6-36.5.2-22.2 0-27.1-1.2-28.3-3.1-3-4.4-2.1-14 10.3l-5.7 7.2-4-2.1c-11.1-5.7-22.8-5.6-33.2.3l-3.2 1.8-7.3-9.4C44.4.9 41.7-.8 39 2.4zm30.8 32.8c.7.7 1.2 2.2 1.2 3.5 0 2.7-4.2 4.2-6.5 2.3-2.8-2.3-1.1-7 2.5-7 .9 0 2.1.5 2.8 1.2zm25.6 1c1.5 2.5-.3 5.2-3.7 5.6-2.1.3-2.8-.2-3.3-2.2-1.2-4.9 4.3-7.6 7-3.4zm-4.8 16.3c.8 1 1.4 2.3 1.4 2.7C92 56.8 80.9 67 79.1 67c-.9 0-4.1-2.4-7-5.4-4.5-4.5-5.3-5.8-4.7-7.9.7-3.1 1.7-3.3 13-3.2 7.4.2 9.1.5 10.2 2z"/><path d="M142 54.8c-8.9 1.1-14.9 5.3-18.6 12.7-5.4 11.2-2.2 26 7.1 32.4 6 4.1 15.1 5.4 17.8 2.6 2.1-2.1 1-5.4-2.2-6.1-11.8-2.7-12.3-2.9-15.3-8.8-2.6-5.1-2.2-14.3.8-18.4 4.7-6.3 15.4-8.2 22.8-3.9 5.3 2.9 7.6 9.3 7.2 19.2-.5 9.6-2.7 14-15.1 30.5-9.2 12.4-15.5 23.3-20.2 35-.9 2.3-1.1 2.1-1.7-2.5-1.1-7-6.8-24-10.6-31.6-1.8-3.5-5.9-10.5-9.1-15.6-3.3-5.1-5.9-9.7-5.9-10.3 0-.6-1-.8-2.2-.5-10.2 2.4-24.8 2.7-31.8.6-4.3-1.3-5-1.4-5-.2 0 .6-2.7 5.2-6.1 10.3C41.2 119.8 36 134.4 31.5 163c-.3 1.9-.8 10.1-1.1 18.2-.5 11.1-.3 15.2.6 16.3 1 1.2 4.1 1.5 16.6 1.5h15.3l.3-15.6c.3-13.7.5-15.8 2.1-16.8 1.2-.8 2.2-.8 3.5 0 1.5 1 1.7 3.1 2 16.8l.3 15.6h16.4l.1-14.9c0-15.6.7-18.1 4.5-18.1 2.6 0 4.1 3.4 3.9 9.3-.1 2.9-.1 9.4-.1 14.4l.1 9.3h15.4c11.2 0 15.6-.3 16.4-1.3.6-.7 1.2-5.8 1.3-11.4.5-26.5 6.4-42.9 24-66.3 13-17.3 16.1-23.7 16.7-34.5.7-13.4-3.8-23.9-12-28.1-3.4-1.7-11.8-3.1-15.8-2.6z"/></svg>